<?xml version="1.0" encoding="utf-8"?>
<!-- Generator: Adobe Illustrator 25.4.1, SVG Export Plug-In . SVG Version: 6.00 Build 0)  -->
<svg version="1.1" id="Layer_1" xmlns="http://www.w3.org/2000/svg" xmlns:xlink="http://www.w3.org/1999/xlink" x="0px" y="0px"
	 viewBox="0 0 90.2 90.2" style="enable-background:new 0 0 90.2 90.2;" xml:space="preserve">
<style type="text/css">
	.st0{fill:#FFFFFF;}
</style>
<g>
	<g>
		<path d="M90.2,90.2H0V0h90.2V90.2z M1.5,88.7h87.2V1.5H1.5V88.7z"/>
	</g>
	<g>
		<g>
			<path d="M10.7,13.8c2.3-0.8,3.2-1.8,3-3.4c-0.2-1.1-2.1,0.1-3.3,1.2C8.9,12.9,9.1,14.4,10.7,13.8z"/>
		</g>
		<g>
			<path d="M24.1,10c0.5-1.3-1.4-0.8-2.5-0.2c-1.8,1-1.3,1.9-2.8,3.4c-1.5,1.5-1.6,1.3-3.1,2.8c-1.5,1.5-1.7,1.3-3.2,2.8
				s-1.6,1.4-2.7,3.3c-0.7,1.1-1.6,2.9-0.5,2.5c2.3-0.7,1.7-2.1,3.5-3.9c1.8-1.8,1.8-1.8,3.7-3.6c1.8-1.8,1.8-1.8,3.9-3.3
				C22.6,12.3,23.2,12.5,24.1,10z"/>
		</g>
		<g>
			<path d="M33.8,9.9c0.3-1.2-1-0.5-1.9,0.1c-1.8,1.1-2,1-3.5,2.6c-1.6,1.6-1.5,1.6-3.1,3.2c-1.6,1.6-1.3,2-2.8,3.5
				c-1.6,1.6-1.8,1.3-3.3,2.9c-1.6,1.6-1.7,1.5-3.2,3c-1.6,1.6-1.6,1.6-3.1,3.2s-2,1.4-3.2,3.3c-0.6,1-1,2.5,0.1,2.2
				c1.9-0.5,1.2-1.5,2.8-3c1.5-1.5,1.9-1,3.5-2.5c1.5-1.5,1.1-2,2.6-3.6c1.5-1.5,1.6-1.4,3.2-2.9c1.5-1.5,1.8-1.1,3.4-2.7
				c1.5-1.5,1.4-1.7,2.9-3.2c1.5-1.5,1.4-1.8,3.1-3.1C32.6,11.6,33.1,12,33.8,9.9z"/>
		</g>
		<g>
			<path d="M10.9,40.2c-0.3,1.2,1.6,0.8,2.6,0.2c1.8-1.1,1.3-1.8,2.8-3.4c1.5-1.5,1.9-1,3.4-2.5c1.5-1.5,0.7-2.5,2.3-4
				c1.5-1.5,1.9-1,3.5-2.5c1.5-1.5,1.2-1.9,2.7-3.4c1.5-1.5,2.2-0.7,3.7-2.2c1.5-1.5,1.7-1.3,3.2-2.8c1.5-1.5,1-2.2,2.5-3.8
				c1.5-1.5,1.9-1.1,3.4-2.6s2-1.2,2.6-3.3c0.3-1.2-0.9-0.5-1.9,0c-1.8,1.1-1.6,1.5-3.1,3c-1.5,1.5-1.1,2-2.6,3.6
				c-1.5,1.5-2.4,0.4-3.9,1.9c-1.5,1.5-1.1,2-2.6,3.5c-1.5,1.5-1.6,1.4-3.1,2.9c-1.5,1.5-0.8,2.4-2.3,3.9c-1.5,1.5-2.4,0.4-3.9,1.9
				c-1.5,1.5-1,2.1-2.6,3.6c-1.5,1.5-1.6,1.2-3.4,2.4C12.2,38,11.5,38.1,10.9,40.2z"/>
		</g>
		<g>
			<path d="M53.1,9.8c0.3-1.2-0.4-0.4-1.4,0.2c-1.8,1.1-1.8,1.1-3.3,2.6c-1.5,1.5-0.8,2.4-2.3,3.9c-1.5,1.5-2.2,0.7-3.7,2.2
				c-1.5,1.5-1.2,1.9-2.8,3.4c-1.5,1.5-1.6,1.4-3.1,3c-1.5,1.5-1,2.1-2.6,3.6c-1.5,1.5-1.9,1-3.4,2.5c-1.5,1.5-1.2,2-2.7,3.5
				c-1.5,1.5-1.5,1.6-3,3.1s-2.8,0.4-3.5,2.5c-0.3,1.2,1.1,0.6,2.1,0c1.8-1.1,1.6-1.5,3.1-3c1.5-1.5,1.1-2.1,2.6-3.6
				c1.5-1.5,2.1-0.8,3.6-2.3c1.5-1.5,1.6-1.4,3.1-2.9c1.5-1.5,1.5-1.5,3.1-3c1.5-1.5,1.5-1.6,3-3.1c1.5-1.5,0.8-2.4,2.3-4
				c1.5-1.5,2.4-0.4,4-1.9c1.5-1.5,0.4-3,2.1-4.4C51.7,10.9,52.4,11.9,53.1,9.8z"/>
		</g>
		<g>
			<path d="M64,10c0.3-1.2-1.7-1.3-2.7-0.7c-1.8,1.1-1.4,2-2.9,3.5c-1.5,1.5-1.2,1.9-2.7,3.5c-1.5,1.5-2,0.9-3.5,2.5
				c-1.5,1.5-1.1,2-2.6,3.6c-1.5,1.5-1.7,1.2-3.3,2.8c-1.5,1.5-2,0.9-3.5,2.4c-1.5,1.5-0.9,2.3-2.4,3.8c-1.5,1.5-1.3,1.8-2.8,3.3
				c-1.5,1.5-1.7,1.3-3.2,2.9s-2.4,0.8-3,2.9c-0.3,1.2,0.8,0,1.8-0.6c1.8-1.1,2-0.7,3.5-2.2c1.5-1.5,1.2-1.9,2.7-3.5
				c1.5-1.5,1.8-1.2,3.3-2.7c1.5-1.5,1.3-1.8,2.8-3.3c1.5-1.5,1.1-2.1,2.6-3.6c1.5-1.5,2-1,3.5-2.5c1.5-1.5,1.9-1.1,3.4-2.6
				c1.5-1.5,0.7-2.6,2.2-4.1c1.5-1.5,1.6-1.7,3.3-2.8C62.3,11.2,63.4,12.1,64,10z"/>
		</g>
		<g>
			<path d="M73.1,9.8c0.3-1.2-0.7-0.7-1.7-0.2c-1.8,1.1-1.4,1.8-2.9,3.3c-1.5,1.5-2,0.9-3.5,2.4c-1.5,1.5-0.8,2.4-2.4,3.9
				c-1.5,1.5-1.4,1.7-2.9,3.2c-1.5,1.5-2.1,0.8-3.6,2.3c-1.5,1.5-1,2.2-2.5,3.7c-1.5,1.5-2.3,0.6-3.8,2.1c-1.5,1.5-0.6,2.7-2.1,4.3
				c-1.5,1.5-1.8,1.2-3.3,2.7c-1.5,1.5-3.2,0.5-3.8,2.6c-0.3,1.2,1.8,1.1,2.8,0.5c1.8-1.1,1.1-2.2,2.6-3.7c1.5-1.5,1.7-1.3,3.2-2.9
				c1.5-1.5,1.6-1.4,3.1-3c1.5-1.5,1-2.1,2.6-3.6c1.5-1.5,1.6-1.5,3.1-3c1.5-1.5,2.5-0.3,4-1.8c1.5-1.5,1.2-1.9,2.7-3.4
				c1.5-1.5,1.2-1.9,2.7-3.4c1.5-1.5,1.9-0.9,3.6-2.2C72.6,12.3,72.4,11.9,73.1,9.8z"/>
		</g>
		<g>
			<path d="M50.6,40.3c-0.3,1.2,1.8,1.2,2.8,0.6c1.8-1.1,1-2.4,2.5-4c1.5-1.5,2-0.9,3.5-2.5c1.5-1.5,1.5-1.6,3-3.1
				c1.5-1.5,1.8-1.2,3.3-2.8c1.5-1.5,1.6-1.4,3.1-3c1.5-1.5,1.3-1.8,2.9-3.3c1.5-1.5,1.4-1.7,2.9-3.2c1.5-1.5,1.5-1.6,3-3.2
				c1.5-1.5,1.3-1.6,2.5-3.5c0.6-1,1.9-2.2,0.8-1.9c-1.9,0.4-1.7,1.2-3.2,2.7c-1.5,1.5-1.2,1.9-2.7,3.4c-1.5,1.5-1.4,1.7-2.8,3.2
				c-1.5,1.5-2.3,0.5-3.8,2c-1.5,1.5-1.2,1.8-2.7,3.3c-1.5,1.5-0.8,2.4-2.3,3.9c-1.5,1.5-2.1,0.7-3.6,2.2c-1.5,1.5-1.1,2-2.6,3.5
				c-1.5,1.5-1.8,0.9-3.5,2C51.8,37.9,51.2,38.2,50.6,40.3z"/>
		</g>
		<g>
			<path d="M80.4,23c0.7-1.1,1.4-3,0.3-2.7c-2.1,0.6-1.8,1.7-3.4,3.3c-1.6,1.6-1.6,1.7-3.2,3.3c-1.6,1.6-1.3,2.1-2.9,3.7
				c-1.6,1.6-1.9,1.3-3.6,2.9c-1.6,1.6-1.4,2-3,3.6c-1.6,1.6-3,0.7-3.8,3c-0.4,1.2,1.5,0.6,2.5,0c2-1.2,1.8-1.6,3.5-3.3
				c1.7-1.7,1.7-1.8,3.4-3.5c1.7-1.7,1.6-1.8,3.4-3.5c1.7-1.7,1.5-2.1,3.3-3.7C78.6,24.6,79.1,25.2,80.4,23z"/>
		</g>
		<g>
			<path d="M80.2,33.3c0.8-1.3,1.7-3.5,0.4-2.9c-3,1.3-2.5,2.4-4.9,4.8c-2.4,2.4-3.2,1.8-4.7,5c-0.6,1.4,1.3,0.7,2.5,0
				c2-1.1,1.6-1.9,3.4-3.4C78.7,35.2,78.9,35.4,80.2,33.3z"/>
		</g>
	</g>
</g>
</svg>
