<?xml version="1.0" encoding="utf-8"?>
<!-- Generator: Adobe Illustrator 25.4.1, SVG Export Plug-In . SVG Version: 6.00 Build 0)  -->
<svg version="1.1" id="Layer_1" xmlns="http://www.w3.org/2000/svg" xmlns:xlink="http://www.w3.org/1999/xlink" x="0px" y="0px"
	 viewBox="0 0 90.2 90.2" style="enable-background:new 0 0 90.2 90.2;" xml:space="preserve">
<style type="text/css">
	.st0{fill:#FFFFFF;}
</style>
<g>
	<g>
		<path class="st0" d="M12.6,73c0.7,0.3,1.6,0.4,2.6,0.4c1.1,0,2-0.2,2.7-0.6c0.7-0.4,1.3-1,1.7-1.7s0.7-1.5,0.9-2.4l0.9-4.7h-2.2
			L19,65.7c0-0.1-0.1-0.1-0.1-0.2c-0.4-0.5-0.9-0.8-1.6-1.1c-0.7-0.3-1.4-0.4-2.3-0.4c-1,0-1.9,0.2-2.7,0.6c-0.8,0.4-1.4,1-1.9,1.7
			c-0.5,0.7-0.7,1.6-0.7,2.5c0,0.9,0.2,1.7,0.7,2.4c0.2,0.4,0.5,0.7,0.8,1c-0.1,0.1-0.2,0.1-0.3,0.3c-0.3,0.2-0.5,0.5-0.7,0.8
			c-0.2,0.3-0.3,0.7-0.3,1.1c0,0.6,0.2,1.1,0.7,1.5c0.5,0.4,1.1,0.6,1.9,0.7l4.4,0.4c0.5,0,1,0.1,1.4,0.2c0.4,0.1,0.6,0.4,0.6,0.8
			c0,0.3-0.1,0.5-0.4,0.8c-0.3,0.2-0.7,0.4-1.2,0.5c-0.5,0.1-1.2,0.2-2.1,0.2c-1.1,0-2-0.1-2.7-0.3c-0.6-0.2-1-0.6-1-1.1
			c0-0.2,0-0.4,0.1-0.5c0.1-0.1,0.1-0.3,0.2-0.3l-2.2-0.3c-0.1,0.1-0.2,0.3-0.2,0.6c-0.1,0.2-0.1,0.5-0.1,0.8c0,1,0.5,1.7,1.5,2.3
			c1,0.6,2.4,0.8,4.4,0.8c1.3,0,2.4-0.1,3.3-0.4c0.9-0.3,1.6-0.7,2-1.2c0.5-0.5,0.7-1.1,0.7-1.8c0-0.6-0.1-1.1-0.4-1.5
			c-0.3-0.4-0.7-0.7-1.2-0.8c-0.5-0.2-1.1-0.3-1.7-0.4l-4.1-0.4c-0.6-0.1-1-0.2-1.2-0.3c-0.2-0.2-0.3-0.4-0.3-0.6
			c0-0.3,0.1-0.5,0.4-0.7C12.5,73,12.5,73,12.6,73z M12.5,67.3c0.3-0.4,0.6-0.7,1.1-1c0.5-0.2,1-0.3,1.6-0.3c0.6,0,1.2,0.1,1.6,0.3
			c0.5,0.2,0.8,0.5,1.1,0.9c0.2,0.4,0.4,0.9,0.4,1.5c0,0.6-0.1,1.1-0.4,1.5c-0.2,0.4-0.6,0.7-1.1,0.9c-0.5,0.2-1,0.3-1.7,0.3
			c-0.6,0-1.2-0.1-1.7-0.3c-0.5-0.2-0.8-0.5-1.1-0.9c-0.2-0.4-0.4-0.9-0.4-1.5C12.1,68.2,12.2,67.7,12.5,67.3z"/>
		<path class="st0" d="M34,75.2c-0.1-0.2-0.1-0.4-0.1-0.7c0-0.3,0-0.5,0-0.8v-4.8c0-0.2,0-0.3,0-0.5s0-0.3,0-0.5
			c0-0.9-0.2-1.6-0.7-2.2c-0.5-0.6-1.1-1.1-1.9-1.4c-0.8-0.3-1.7-0.5-2.7-0.5c-1.1,0-2,0.2-2.8,0.5c-0.8,0.3-1.5,0.8-1.9,1.5
			c-0.5,0.6-0.7,1.4-0.7,2.3h2.3c0-0.8,0.3-1.3,0.8-1.7c0.5-0.4,1.3-0.5,2.3-0.5c0.9,0,1.7,0.2,2.2,0.5c0.5,0.3,0.8,0.8,0.8,1.4
			c0,0,0,0,0,0c0,0.3-0.3,0.5-0.9,0.7C30,68.7,29,68.8,27.6,69c-0.9,0.1-1.8,0.3-2.5,0.6c-0.7,0.3-1.3,0.7-1.7,1.2
			c-0.4,0.5-0.6,1.2-0.6,2c0,0.7,0.2,1.4,0.6,1.9c0.4,0.5,0.9,0.9,1.5,1.2c0.7,0.3,1.4,0.4,2.3,0.4c0.8,0,1.4-0.1,2.1-0.3
			c0.6-0.2,1.2-0.4,1.6-0.8c0.2-0.2,0.4-0.4,0.6-0.6c0,0.2,0.1,0.4,0.1,0.6c0.1,0.2,0.1,0.4,0.2,0.5c0.1,0.1,0.1,0.2,0.2,0.3h2.4
			c-0.1-0.1-0.1-0.2-0.2-0.3C34.1,75.6,34,75.4,34,75.2z M30.9,72.9c-0.3,0.5-0.8,0.8-1.3,1c-0.6,0.2-1.2,0.3-1.9,0.3
			c-0.9,0-1.5-0.1-1.9-0.4c-0.4-0.3-0.6-0.7-0.6-1.3c0-0.6,0.2-1,0.7-1.3c0.5-0.3,1.2-0.4,2.2-0.5c0.7-0.1,1.4-0.2,2.1-0.3
			c0.4-0.1,0.8-0.2,1.2-0.3v1C31.4,71.9,31.3,72.5,30.9,72.9z"/>
		<rect x="36.9" y="58.5" class="st0" width="2.4" height="17.6"/>
		<rect x="42.6" y="58.5" class="st0" width="2.4" height="17.6"/>
		<path class="st0" d="M57,64.7c-0.9-0.5-1.9-0.8-3.2-0.8c-1.2,0-2.3,0.3-3.2,0.8c-0.9,0.5-1.6,1.2-2.2,2.2c-0.5,0.9-0.8,2-0.8,3.2
			c0,1.2,0.3,2.3,0.8,3.2c0.5,0.9,1.2,1.7,2.1,2.2c0.9,0.5,2,0.8,3.2,0.8c0.9,0,1.7-0.1,2.4-0.3c0.7-0.2,1.3-0.5,1.8-0.9
			c0.5-0.4,0.9-0.8,1.1-1.3c0.3-0.5,0.4-1,0.5-1.4h-2.4c0,0.2-0.1,0.5-0.2,0.7c-0.1,0.2-0.3,0.4-0.6,0.6c-0.3,0.2-0.6,0.4-1,0.5
			c-0.4,0.1-0.9,0.2-1.5,0.2c-0.8,0-1.5-0.2-2.1-0.5c-0.6-0.3-1-0.8-1.3-1.4c-0.2-0.4-0.3-0.9-0.4-1.4h9.7c0-0.1,0-0.2,0-0.4
			c0-0.2,0-0.4,0-0.5c0-1.2-0.2-2.3-0.7-3.2C58.5,66,57.9,65.3,57,64.7z M51.8,66.5c0.6-0.3,1.2-0.5,2-0.5c0.8,0,1.4,0.2,1.9,0.5
			c0.5,0.3,0.9,0.7,1.2,1.2c0.2,0.4,0.3,0.9,0.4,1.4h-7.2c0.1-0.4,0.2-0.8,0.4-1.2C50.8,67.3,51.2,66.8,51.8,66.5z"/>
		<path class="st0" d="M68.1,63.9c-0.6,0-1.2,0.1-1.6,0.3c-0.5,0.2-0.9,0.5-1.2,0.8c-0.2,0.2-0.3,0.4-0.5,0.7v-1.6h-2.4v11.9h2.4
			v-6.2c0-0.4,0-0.9,0.1-1.3c0.1-0.4,0.3-0.8,0.5-1.2c0.2-0.4,0.6-0.6,0.9-0.9c0.4-0.2,0.9-0.3,1.5-0.3c0.4,0,0.7,0,0.9,0.1
			c0.2,0.1,0.4,0.1,0.4,0.2l0.5-2.3c-0.1,0-0.2-0.1-0.5-0.2C69,64,68.6,63.9,68.1,63.9z"/>
		<path class="st0" d="M78.9,64.1l-2.8,9.6l-2.9-9.6h-2.5l4,12l-0.3,0.9c-0.1,0.4-0.3,0.8-0.5,1.1s-0.5,0.6-0.8,0.7
			c-0.3,0.2-0.7,0.3-1.1,0.3c-0.2,0-0.5,0-0.7,0c-0.2,0-0.4-0.1-0.5-0.1v2c0.1,0,0.2,0.1,0.5,0.1c0.3,0,0.5,0.1,0.9,0.1
			c1,0,1.8-0.2,2.5-0.6c0.6-0.4,1.1-0.9,1.5-1.5c0.4-0.6,0.7-1.4,0.9-2.2l4.2-12.8H78.9z"/>
		<path class="st0" d="M10.6,57.7c0,0.1,0,0.2,0,0.3c0,0.1,0,0.2,0,0.3c0,0.4,0.1,0.7,0.2,1c0.1,0.3,0.3,0.5,0.5,0.6
			c0.2,0.1,0.4,0.2,0.7,0.3c0.2,0.1,0.5,0.1,0.7,0.1c0.2,0,0.4,0,0.5,0c0.1,0,0.3-0.1,0.3-0.1v-1.2c-0.1,0-0.2,0.1-0.3,0.1
			c-0.1,0-0.3,0-0.4,0c-0.3,0-0.5-0.1-0.6-0.3c-0.1-0.2-0.1-0.5-0.1-0.9c0-0.1,0-0.2,0-0.3c0-0.1,0-0.2,0-0.3V54h2.2v-1.3H12v-2.4
			h-1.5v1.4c0,0.2,0,0.4,0,0.6c0,0.1,0,0.2-0.1,0.3c-0.1,0.1-0.1,0.1-0.2,0.1c-0.1,0-0.3,0-0.5,0H8.8V54h1.7V57.7z"/>
		<path class="st0" d="M19.5,52.6c-0.6,0-1.1,0.1-1.6,0.4c-0.3,0.2-0.6,0.4-0.8,0.7v-4.4h-1.5v10.9h1.5v-4.3c0-0.4,0.1-0.7,0.2-1
			c0.2-0.3,0.4-0.5,0.7-0.7c0.3-0.2,0.6-0.2,1-0.2c0.6,0,1,0.2,1.3,0.5c0.3,0.3,0.4,0.8,0.4,1.5c0,0.1,0,0.3,0,0.4
			c0,0.2,0,0.4,0,0.5c0,0.2,0,0.3,0,0.4v2.7h1.5v-2.6c0-0.4,0-0.7,0-1.1c0-0.3,0-0.6,0-0.9c0-0.9-0.2-1.7-0.7-2.2
			C21.1,52.9,20.4,52.6,19.5,52.6z"/>
		<path class="st0" d="M25.7,59.6c0.6,0.3,1.2,0.5,2,0.5c0.6,0,1.1-0.1,1.5-0.2c0.4-0.1,0.8-0.3,1.1-0.6c0.3-0.2,0.5-0.5,0.7-0.8
			c0.2-0.3,0.3-0.6,0.3-0.9h-1.5c0,0.1-0.1,0.3-0.1,0.4c-0.1,0.1-0.2,0.3-0.4,0.4c-0.2,0.1-0.4,0.2-0.6,0.3
			c-0.3,0.1-0.6,0.1-0.9,0.1c-0.5,0-0.9-0.1-1.3-0.3c-0.4-0.2-0.6-0.5-0.8-0.9c-0.1-0.2-0.2-0.5-0.2-0.8h6c0,0,0-0.1,0-0.2
			c0-0.1,0-0.2,0-0.3c0-0.7-0.1-1.4-0.4-2c-0.3-0.6-0.7-1-1.3-1.3c-0.6-0.3-1.2-0.5-2-0.5c-0.7,0-1.4,0.2-2,0.5
			c-0.6,0.3-1,0.8-1.3,1.3c-0.3,0.6-0.5,1.2-0.5,2c0,0.7,0.2,1.4,0.5,2C24.6,58.9,25.1,59.3,25.7,59.6z M26.4,54
			c0.4-0.2,0.8-0.3,1.2-0.3c0.5,0,0.9,0.1,1.2,0.3c0.3,0.2,0.6,0.4,0.7,0.8c0.1,0.3,0.2,0.6,0.2,0.9h-4.4c0-0.3,0.1-0.5,0.2-0.7
			C25.8,54.5,26.1,54.2,26.4,54z"/>
	</g>
	<g>
		<path class="st0" d="M90.2,90.2H0V0h90.2V90.2z M1.5,88.7h87.2V1.5H1.5V88.7z"/>
	</g>
	<g>
		<g>
			<path class="st0" d="M10.7,13.8c2.3-0.8,3.2-1.8,3-3.4c-0.2-1.1-2.1,0.1-3.3,1.2C8.9,12.9,9.1,14.4,10.7,13.8z"/>
		</g>
		<g>
			<path class="st0" d="M24.1,10c0.5-1.3-1.4-0.8-2.5-0.2c-1.8,1-1.3,1.9-2.8,3.4c-1.5,1.5-1.6,1.3-3.1,2.8
				c-1.5,1.5-1.7,1.3-3.2,2.8s-1.6,1.4-2.7,3.3c-0.7,1.1-1.6,2.9-0.5,2.5c2.3-0.7,1.7-2.1,3.5-3.9c1.8-1.8,1.8-1.8,3.7-3.6
				c1.8-1.8,1.8-1.8,3.9-3.3C22.6,12.3,23.2,12.5,24.1,10z"/>
		</g>
		<g>
			<path class="st0" d="M33.8,9.9c0.3-1.2-1-0.5-1.9,0.1c-1.8,1.1-2,1-3.5,2.6c-1.6,1.6-1.5,1.6-3.1,3.2c-1.6,1.6-1.3,2-2.8,3.5
				c-1.6,1.6-1.8,1.3-3.3,2.9c-1.6,1.6-1.7,1.5-3.2,3c-1.6,1.6-1.6,1.6-3.1,3.2s-2,1.4-3.2,3.3c-0.6,1-1,2.5,0.1,2.2
				c1.9-0.5,1.2-1.5,2.8-3c1.5-1.5,1.9-1,3.5-2.5c1.5-1.5,1.1-2,2.6-3.6c1.5-1.5,1.6-1.4,3.2-2.9c1.5-1.5,1.8-1.1,3.4-2.7
				c1.5-1.5,1.4-1.7,2.9-3.2c1.5-1.5,1.4-1.8,3.1-3.1C32.6,11.6,33.1,12,33.8,9.9z"/>
		</g>
		<g>
			<path class="st0" d="M10.9,40.2c-0.3,1.2,1.6,0.8,2.6,0.2c1.8-1.1,1.3-1.8,2.8-3.4c1.5-1.5,1.9-1,3.4-2.5c1.5-1.5,0.7-2.5,2.3-4
				c1.5-1.5,1.9-1,3.5-2.5c1.5-1.5,1.2-1.9,2.7-3.4c1.5-1.5,2.2-0.7,3.7-2.2c1.5-1.5,1.7-1.3,3.2-2.8c1.5-1.5,1-2.2,2.5-3.8
				c1.5-1.5,1.9-1.1,3.4-2.6s2-1.2,2.6-3.3c0.3-1.2-0.9-0.5-1.9,0c-1.8,1.1-1.6,1.5-3.1,3c-1.5,1.5-1.1,2-2.6,3.6
				c-1.5,1.5-2.4,0.4-3.9,1.9c-1.5,1.5-1.1,2-2.6,3.5c-1.5,1.5-1.6,1.4-3.1,2.9c-1.5,1.5-0.8,2.4-2.3,3.9c-1.5,1.5-2.4,0.4-3.9,1.9
				c-1.5,1.5-1,2.1-2.6,3.6c-1.5,1.5-1.6,1.2-3.4,2.4C12.2,38,11.5,38.1,10.9,40.2z"/>
		</g>
		<g>
			<path class="st0" d="M53.1,9.8c0.3-1.2-0.4-0.4-1.4,0.2c-1.8,1.1-1.8,1.1-3.3,2.6c-1.5,1.5-0.8,2.4-2.3,3.9
				c-1.5,1.5-2.2,0.7-3.7,2.2c-1.5,1.5-1.2,1.9-2.8,3.4c-1.5,1.5-1.6,1.4-3.1,3c-1.5,1.5-1,2.1-2.6,3.6c-1.5,1.5-1.9,1-3.4,2.5
				c-1.5,1.5-1.2,2-2.7,3.5c-1.5,1.5-1.5,1.6-3,3.1s-2.8,0.4-3.5,2.5c-0.3,1.2,1.1,0.6,2.1,0c1.8-1.1,1.6-1.5,3.1-3
				c1.5-1.5,1.1-2.1,2.6-3.6c1.5-1.5,2.1-0.8,3.6-2.3c1.5-1.5,1.6-1.4,3.1-2.9c1.5-1.5,1.5-1.5,3.1-3c1.5-1.5,1.5-1.6,3-3.1
				c1.5-1.5,0.8-2.4,2.3-4c1.5-1.5,2.4-0.4,4-1.9c1.5-1.5,0.4-3,2.1-4.4C51.7,10.9,52.4,11.9,53.1,9.8z"/>
		</g>
		<g>
			<path class="st0" d="M64,10c0.3-1.2-1.7-1.3-2.7-0.7c-1.8,1.1-1.4,2-2.9,3.5c-1.5,1.5-1.2,1.9-2.7,3.5c-1.5,1.5-2,0.9-3.5,2.5
				c-1.5,1.5-1.1,2-2.6,3.6c-1.5,1.5-1.7,1.2-3.3,2.8c-1.5,1.5-2,0.9-3.5,2.4c-1.5,1.5-0.9,2.3-2.4,3.8c-1.5,1.5-1.3,1.8-2.8,3.3
				c-1.5,1.5-1.7,1.3-3.2,2.9s-2.4,0.8-3,2.9c-0.3,1.2,0.8,0,1.8-0.6c1.8-1.1,2-0.7,3.5-2.2c1.5-1.5,1.2-1.9,2.7-3.5
				c1.5-1.5,1.8-1.2,3.3-2.7c1.5-1.5,1.3-1.8,2.8-3.3c1.5-1.5,1.1-2.1,2.6-3.6c1.5-1.5,2-1,3.5-2.5c1.5-1.5,1.9-1.1,3.4-2.6
				c1.5-1.5,0.7-2.6,2.2-4.1c1.5-1.5,1.6-1.7,3.3-2.8C62.3,11.2,63.4,12.1,64,10z"/>
		</g>
		<g>
			<path class="st0" d="M73.1,9.8c0.3-1.2-0.7-0.7-1.7-0.2c-1.8,1.1-1.4,1.8-2.9,3.3c-1.5,1.5-2,0.9-3.5,2.4
				c-1.5,1.5-0.8,2.4-2.4,3.9c-1.5,1.5-1.4,1.7-2.9,3.2c-1.5,1.5-2.1,0.8-3.6,2.3c-1.5,1.5-1,2.2-2.5,3.7c-1.5,1.5-2.3,0.6-3.8,2.1
				c-1.5,1.5-0.6,2.7-2.1,4.3c-1.5,1.5-1.8,1.2-3.3,2.7c-1.5,1.5-3.2,0.5-3.8,2.6c-0.3,1.2,1.8,1.1,2.8,0.5c1.8-1.1,1.1-2.2,2.6-3.7
				c1.5-1.5,1.7-1.3,3.2-2.9c1.5-1.5,1.6-1.4,3.1-3c1.5-1.5,1-2.1,2.6-3.6c1.5-1.5,1.6-1.5,3.1-3c1.5-1.5,2.5-0.3,4-1.8
				c1.5-1.5,1.2-1.9,2.7-3.4c1.5-1.5,1.2-1.9,2.7-3.4c1.5-1.5,1.9-0.9,3.6-2.2C72.6,12.3,72.4,11.9,73.1,9.8z"/>
		</g>
		<g>
			<path class="st0" d="M50.6,40.3c-0.3,1.2,1.8,1.2,2.8,0.6c1.8-1.1,1-2.4,2.5-4c1.5-1.5,2-0.9,3.5-2.5c1.5-1.5,1.5-1.6,3-3.1
				c1.5-1.5,1.8-1.2,3.3-2.8c1.5-1.5,1.6-1.4,3.1-3c1.5-1.5,1.3-1.8,2.9-3.3c1.5-1.5,1.4-1.7,2.9-3.2c1.5-1.5,1.5-1.6,3-3.2
				c1.5-1.5,1.3-1.6,2.5-3.5c0.6-1,1.9-2.2,0.8-1.9c-1.9,0.4-1.7,1.2-3.2,2.7c-1.5,1.5-1.2,1.9-2.7,3.4c-1.5,1.5-1.4,1.7-2.8,3.2
				c-1.5,1.5-2.3,0.5-3.8,2c-1.5,1.5-1.2,1.8-2.7,3.3c-1.5,1.5-0.8,2.4-2.3,3.9c-1.5,1.5-2.1,0.7-3.6,2.2c-1.5,1.5-1.1,2-2.6,3.5
				c-1.5,1.5-1.8,0.9-3.5,2C51.8,37.9,51.2,38.2,50.6,40.3z"/>
		</g>
		<g>
			<path class="st0" d="M80.4,23c0.7-1.1,1.4-3,0.3-2.7c-2.1,0.6-1.8,1.7-3.4,3.3c-1.6,1.6-1.6,1.7-3.2,3.3
				c-1.6,1.6-1.3,2.1-2.9,3.7c-1.6,1.6-1.9,1.3-3.6,2.9c-1.6,1.6-1.4,2-3,3.6c-1.6,1.6-3,0.7-3.8,3c-0.4,1.2,1.5,0.6,2.5,0
				c2-1.2,1.8-1.6,3.5-3.3c1.7-1.7,1.7-1.8,3.4-3.5c1.7-1.7,1.6-1.8,3.4-3.5c1.7-1.7,1.5-2.1,3.3-3.7C78.6,24.6,79.1,25.2,80.4,23z"
				/>
		</g>
		<g>
			<path class="st0" d="M80.2,33.3c0.8-1.3,1.7-3.5,0.4-2.9c-3,1.3-2.5,2.4-4.9,4.8c-2.4,2.4-3.2,1.8-4.7,5c-0.6,1.4,1.3,0.7,2.5,0
				c2-1.1,1.6-1.9,3.4-3.4C78.7,35.2,78.9,35.4,80.2,33.3z"/>
		</g>
	</g>
</g>
</svg>
